<?xml version="1.0" encoding="UTF-8" standalone="no"?>
<svg
   xmlns:dc="http://purl.org/dc/elements/1.1/"
   xmlns:cc="http://creativecommons.org/ns#"
   xmlns:rdf="http://www.w3.org/1999/02/22-rdf-syntax-ns#"
   xmlns:svg="http://www.w3.org/2000/svg"
   xmlns="http://www.w3.org/2000/svg"
   xmlns:sodipodi="http://sodipodi.sourceforge.net/DTD/sodipodi-0.dtd"
   xmlns:inkscape="http://www.inkscape.org/namespaces/inkscape"
   inkscape:version="1.0 (4035a4fb49, 2020-05-01)"
   sodipodi:docname="logo-512.svg"
   id="svg166"
   version="1.1"
   viewBox="0 0 135.46666 135.46667"
   height="512"
   width="512">
  <sodipodi:namedview
     inkscape:current-layer="svg166"
     inkscape:window-maximized="0"
     inkscape:window-y="27"
     inkscape:window-x="0"
     inkscape:cy="256"
     inkscape:cx="256"
     inkscape:zoom="1.671875"
     showgrid="false"
     id="namedview14"
     inkscape:window-height="1007"
     inkscape:window-width="1745"
     inkscape:pageshadow="2"
     inkscape:pageopacity="0"
     guidetolerance="10"
     gridtolerance="10"
     objecttolerance="10"
     borderopacity="1"
     bordercolor="#666666"
     pagecolor="#ffffff" />
  <defs
     id="defs160" />
  <metadata
     id="metadata163">
    <rdf:RDF>
      <cc:Work
         rdf:about="">
        <dc:format>image/svg+xml</dc:format>
        <dc:type
           rdf:resource="http://purl.org/dc/dcmitype/StillImage" />
        <dc:title />
      </cc:Work>
    </rdf:RDF>
  </metadata>
  <rect
     style="fill:#ffe66d;fill-opacity:1;stroke:none;stroke-width:0.902884;stroke-opacity:0"
     id="rect2406"
     width="135.46666"
     height="135.46666"
     x="2.7270507e-06"
     y="2.7270507e-06" />
  <g
     id="g2404"
     transform="matrix(0.91369852,0,0,0.91369852,7.4288652,16.039561)">
    <path
       id="path4296"
       style="fill:none;fill-opacity:0;stroke:#1a535c;stroke-width:3.29305;stroke-linejoin:miter;stroke-miterlimit:4;stroke-dasharray:none;stroke-opacity:1"
       d="m 18.464897,52.396513 h 9.900589 c 0,4.723312 -3.336521,8.788874 -7.969079,9.710353 -4.63256,0.92147 -9.270927,-1.557781 -11.0784609,-5.921561 -1.807536,-4.36378 -0.2808164,-9.396703 3.6464779,-12.020837 3.927295,-2.624133 9.161357,-2.10862 12.501246,1.231267" />
    <path
       id="path4302"
       style="fill:none;fill-opacity:0;fill-rule:evenodd;stroke:#1a535c;stroke-width:3.29303;stroke-linecap:butt;stroke-linejoin:miter;stroke-miterlimit:4;stroke-dasharray:none;stroke-opacity:1"
       d="m 48.888197,47.387023 -0.02525,16.463591 m -10e-7,-9.071617 a 7.4251002,7.4251002 0 0 1 -7.4251,7.4251 7.4251002,7.4251002 0 0 1 -7.4251,-7.4251 7.4251002,7.4251002 0 0 1 7.4251,-7.4251 7.4251002,7.4251002 0 0 1 7.4251,7.4251" />
    <path
       id="path4304"
       style="fill:none;fill-opacity:0;stroke:#1a535c;stroke-width:3.29305;stroke-miterlimit:4;stroke-dasharray:none;stroke-opacity:1"
       d="m 106.80083,61.235749 c -2.91041,1.680316 -6.58657,1.196349 -8.962891,-1.179983 -2.376339,-2.376333 -2.860311,-6.052493 -1.179994,-8.96289 1.68033,-2.910408 5.105945,-4.329346 8.352085,-3.459545 3.24613,0.869791 5.50333,3.81145 5.50333,7.172093 h -7.42509" />
    <path
       id="path4312"
       style="fill:none;fill-opacity:0;stroke:#1a535c;stroke-width:3.29303;stroke-miterlimit:4;stroke-dasharray:none;stroke-opacity:1"
       d="m 125.08107,62.159582 c -4.10078,0 -7.42511,-3.324332 -7.42511,-7.425108 m 0,-13.944367 v 9.28092 4.985037 m 7.40953,-7.677336 -10.54878,-0.01667" />
    <path
       id="path4328"
       style="fill:none;fill-opacity:0;fill-rule:evenodd;stroke:#1a535c;stroke-width:3.29303;stroke-linecap:butt;stroke-linejoin:miter;stroke-miterlimit:4;stroke-dasharray:none;stroke-opacity:1"
       d="m 69.410903,40.791798 -0.02525,23.058816 m 0,-9.071619 a 7.4251003,7.4251003 0 0 1 -7.425101,7.425102 7.4251003,7.4251003 0 0 1 -7.4251,-7.425102 7.4251003,7.4251003 0 0 1 7.4251,-7.425099 7.4251003,7.4251003 0 0 1 7.425101,7.425099" />
    <path
       d="m 90.020735,63.265975 c 0,4.100769 -3.326032,7.450311 -7.426801,7.450311 m 7.284228,-23.325656 0.140872,15.916531 m -0.110665,-8.501749 a 7.4251003,7.4251003 0 0 1 -7.4251,7.425101 7.4251003,7.4251003 0 0 1 -7.425101,-7.425101 7.4251003,7.4251003 0 0 1 7.425101,-7.425098 7.4251003,7.4251003 0 0 1 7.4251,7.425098"
       style="fill:none;fill-opacity:0;stroke:#1a535c;stroke-width:3.29303;stroke-miterlimit:4;stroke-dasharray:none;stroke-opacity:1"
       id="path4322" />
  </g>
</svg>
